<svg width="114" height="24" viewBox="0 0 114 24" fill="none" xmlns="http://www.w3.org/2000/svg">
<path fill-rule="evenodd" clip-rule="evenodd" d="M114 23.8742L110.394 14.677C110.233 14.2684 109.839 14 109.399 14H108.122L104.25 23.8742H106.426L107.203 21.9303H111.033L111.824 23.8742H114ZM110.354 20.0712H107.896L109.125 16.8457L110.354 20.0712ZM100.479 24H102.57V14H101.547C100.957 14 100.479 14.483 100.479 15.079V17.923H96.3238V14H94.2182V24H96.3238V19.8629H100.479V24ZM86.0436 21.2473C85.4643 20.6943 85.1674 19.9335 85.1674 18.9796C85.1674 18.0385 85.4643 17.2919 86.0436 16.7523C86.6371 16.1994 87.3154 15.9229 88.0925 15.9229C88.853 15.9229 89.5519 16.166 90.1013 16.5911C90.5143 16.9107 91.117 16.8414 91.4858 16.4733L92.1343 15.8258C91.1307 14.6086 89.8166 14 88.1914 14C86.7079 14 85.4784 14.4564 84.4893 15.3833C83.5003 16.2959 83.0054 17.5134 83.0054 19.0206C83.0054 20.5144 83.5003 21.7178 84.4893 22.6306C85.4925 23.5438 86.7504 24 88.2624 24C89.9297 24 91.2723 23.3916 92.2894 22.1741L90.8907 20.722C90.2121 21.6214 89.3225 22.0774 88.2058 22.0774C87.3437 22.0774 86.6229 21.8007 86.0436 21.2473ZM74.396 14H72.4738V24H74.5791V17.2524L78.2674 23.4751C78.4603 23.8006 78.8081 24 79.1839 24H81.0936V14H79.0023V20.7758L75.314 14.5263C75.1212 14.1999 74.773 14 74.396 14ZM50.8453 14C49.3613 14 48.1321 14.4564 47.1432 15.383C46.1539 16.2959 45.6589 17.5134 45.6589 19.0206C45.6589 20.5144 46.1539 21.7178 47.1432 22.6306C48.1464 23.5438 49.4041 24 50.916 24C52.5833 24 53.9257 23.3916 54.9433 22.1742L53.5445 20.722C52.8661 21.6214 51.9757 22.0774 50.8594 22.0774C49.9975 22.0774 49.2766 21.8007 48.6973 21.2473C48.1181 20.6945 47.8212 19.9335 47.8212 18.9796C47.8212 18.0385 48.1181 17.2919 48.6973 16.7523C49.291 16.1994 49.9692 15.9224 50.7464 15.9224C51.4976 15.9224 52.1888 16.16 52.7347 16.576C53.1583 16.898 53.7639 16.848 54.1397 16.4733L54.788 15.8258C53.7841 14.6086 52.4703 14 50.8453 14ZM36.013 14H32V24H34.1053V20.8331H36.013C37.1574 20.8331 38.0904 20.5193 38.8112 19.8771C39.5317 19.2353 39.8849 18.3935 39.8849 17.3523C39.8849 16.325 39.5317 15.512 38.8251 14.913C38.1185 14.2996 37.1859 14 36.013 14ZM35.6459 15.9541C37.1015 15.9541 37.7938 16.3819 37.7938 17.395C37.7938 18.3793 37.0731 18.8784 35.6459 18.8784H34.1053V15.9541H35.6459ZM41.6565 24H43.7481V14H41.6565V24ZM58.9797 14H56.8742V24H58.9797V19.8629H63.1339V24H65.2255V14H64.2029C63.6129 14 63.1339 14.483 63.1339 15.079V17.923H58.9797V14ZM69.8922 14H67.8038V24H69.8952V14.0022L69.8922 14ZM81.9436 8.7428C82.9351 7.77136 83.4305 6.56018 83.4305 5.08225C83.4305 3.61766 82.9351 2.40733 81.9436 1.45007C80.9522 0.478458 79.7341 0 78.2895 0C76.8593 0 75.6408 0.478458 74.6639 1.45007C73.6865 2.40733 73.1909 3.61766 73.1909 5.08225C73.1909 6.56018 73.6865 7.77136 74.6639 8.7428C75.6408 9.70006 76.8593 10.1785 78.2895 10.1785C79.7341 10.1785 80.9522 9.70006 81.9436 8.7428ZM81.2926 5.08222C81.2926 5.96891 81.0236 6.70112 80.4852 7.30654C79.9612 7.91162 79.2387 8.20758 78.3464 8.20758C77.4264 8.20758 76.7034 7.91162 76.1655 7.30654C75.6276 6.70112 75.3584 5.96891 75.3584 5.08222C75.3584 4.20938 75.6276 3.47716 76.1655 2.87157C76.7181 2.26615 77.4398 1.9707 78.3464 1.9707C79.2104 1.9707 79.9047 2.2805 80.4568 2.88576C81.0093 3.49135 81.2926 4.22305 81.2926 5.08222ZM65.8876 7.37698C65.3069 6.81359 65.0092 6.03951 65.0092 5.06807C65.0092 4.11081 65.3069 3.35058 65.8876 2.80137C66.4825 2.23867 67.1626 1.95672 67.9409 1.95672C68.7038 1.95672 69.4036 2.20416 69.9542 2.63699C70.3682 2.96285 70.9726 2.89177 71.342 2.5172L71.9918 1.8583C70.9863 0.619433 69.6691 0 68.0403 0C66.5532 0 65.3212 0.464447 64.3298 1.40752C63.3383 2.33642 62.8425 3.57562 62.8425 5.11011C62.8425 6.63058 63.3383 7.85578 64.3298 8.7845C65.3353 9.71407 66.596 10.1785 68.1111 10.1785C69.7823 10.1785 71.1278 9.55892 72.1479 8.32039L70.7457 6.84213C70.0655 7.75684 69.1731 8.22145 68.0542 8.22145C67.1908 8.22145 66.4683 7.94002 65.8876 7.37698ZM59.013 9.86923H60.9268V0H58.831V6.68765L55.1341 0.51964C54.9409 0.197535 54.5916 0 54.2146 0H52.2881V9.86923H54.3978V3.20994L58.0945 9.3513C58.2878 9.67272 58.6365 9.86923 59.013 9.86923ZM48.5552 9.86923H50.7359L47.1215 0.677019C46.961 0.26862 46.5653 0 46.1242 0H44.8444L40.9634 9.86923H43.1445L43.9233 7.92635H47.7617L48.5552 9.86923ZM47.0815 6.06771H44.6174L45.85 2.84375L47.0815 6.06771ZM38.8686 4.73042C39.5488 4.20992 39.8885 3.53359 39.8885 2.73131C39.8885 0.971613 38.5431 0 36.4613 0H32V9.86923H36.702C37.736 9.86923 38.5573 9.60164 39.1806 9.0808C39.8179 8.54595 40.1294 7.84176 40.1294 6.9831C40.1294 6.06805 39.7044 5.322 38.8686 4.73042ZM37.7645 2.94236C37.7645 3.61818 37.2119 3.95618 36.1215 3.95618H34.1101V1.92871H36.0366C37.2684 1.92871 37.7645 2.19614 37.7645 2.94236ZM38.0055 6.79972C38.0055 7.63002 37.3963 7.93982 36.2207 7.93982H34.1101V5.71533H36.2771C37.4245 5.71533 38.0055 6.08135 38.0055 6.79972Z" fill="#0F265C"/>
<path fill-rule="evenodd" clip-rule="evenodd" d="M15.1097 0H0V15.9639C0 20.4017 3.59783 24 8.03588 24H24V0H15.1097Z" fill="#FFDD00"/>
<path fill-rule="evenodd" clip-rule="evenodd" d="M20 11.9832V12H16.3922V11.9832V7.608H12V4H20V11.9832Z" fill="#0F265C"/>
</svg>
