<?xml version="1.0" encoding="utf-8"?>
<!-- Generator: Adobe Illustrator 21.0.2, SVG Export Plug-In . SVG Version: 6.00 Build 0)  -->
<svg version="1.1" id="Capa_1" xmlns="http://www.w3.org/2000/svg" xmlns:xlink="http://www.w3.org/1999/xlink" x="0px" y="0px"
	 viewBox="0 0 159 81" style="enable-background:new 0 0 159 81;" xml:space="preserve">
<style type="text/css">
	.st0{fill-rule:evenodd;clip-rule:evenodd;fill:#CC2027;}
	.st1{fill-rule:evenodd;clip-rule:evenodd;fill:#99999A;}
</style>
<path class="st0" d="M5.7,17.4h48.1c3.2,0,5.8,2.9,5.8,6.5v19.5c0,3.6-2.6,6.5-5.8,6.5H43c2.3,0,5.3-0.2,5-5.3v-2.1H11.6v2.1
	c0,2.4,0.2,5.4,5.1,5.3h-11C2.6,49.9,0,47,0,43.4V23.9C0,20.3,2.6,17.4,5.7,17.4 M145.4,37.2c0-0.3,0.3-0.6,0.7-0.6l4.2,0h4.1
	c0.4,0,0.7,0.3,0.7,0.6v2.4l-4.7,0h-4.9V37.2z M155.1,49.9h3.9l0-14.7c0-1-1-1.8-2.2-1.8h-6.5l-6.8,0c-1.2,0-2.2,0.8-2.2,1.8l0,14.7
	h4.1l0-7l4.9,0l4.8,0L155.1,49.9z M85.3,39.6v-2.4c0-0.3,0.3-0.6,0.7-0.6h4.2h4.1c0.4,0,0.7,0.3,0.7,0.6v2.4h-4.8L85.3,39.6z
	 M90.2,33.4h-6.8c-1.2,0-2.2,0.8-2.2,1.8l0,14.7h4.1l0-7h4.9l4.8,0l0,7h3.9l0-14.7c0-1-1-1.8-2.2-1.8H90.2z M101.4,35.6l0,12.1
	c0,1.2,1.1,2.2,2.6,2.2l12.6,0c1.5,0,2.6-1,2.6-2.2v-4.1l-3.8,0V46c0,0.3-0.3,0.6-0.7,0.6h-8.8c-0.3,0-0.7-0.3-0.7-0.6l0-8.7
	c0-0.3,0.3-0.6,0.7-0.6l8.8,0c0.3,0,0.7,0.3,0.7,0.6v2.3h3.8l0-4c0-1.2-1.1-2.2-2.6-2.2H104C102.6,33.4,101.4,34.4,101.4,35.6
	 M139,49.9V35.3c0-1-0.9-1.8-2.2-1.8l-15.5,0v1.8l0,14.7h4.1l0-12.7c0-0.3,0.3-0.6,0.7-0.6l8.3,0c0.4,0,0.7,0.2,0.7,0.6l0,12.7
	L139,49.9z M63.4,36.7C63.4,36.7,63.4,36.7,63.4,36.7l5.5,0c0.4,0,0.5,0.2,0.5,0.7v12.6h4.2l0-12.6c0-0.4,0.3-0.7,0.7-0.7l4.8,0
	c0.2,0,0.2,0,0.5,0l0-3.3l-16.2,0V36.7z M114,23v-0.5v-2c0-0.2,0.3-0.5,0.5-0.5l3.2,0h3.2c0.3,0,0.5,0.2,0.5,0.4v2V23h-3.7L114,23z
	 M124.4,30.7V18.9c0-0.8-0.8-1.4-1.7-1.4l-5.1,0l-5.2,0c-0.9,0-1.6,0.7-1.6,1.5l0,11.7h3.1V25h3.7l3.7,0l0,5.6H124.4z M65.5,30.6
	h9.8c1.1,0,2-0.8,2-1.8v-3.3h-3v1.9c0,0.3-0.3,0.5-0.5,0.5H67c-0.3,0-0.5-0.2-0.5-0.5v-7c0-0.3,0.3-0.5,0.5-0.5l6.8,0
	c0.3,0,0.5,0.2,0.5,0.5v1.8l3,0v-3.2c0-1-0.9-1.8-2-1.8h-9.8c-1.1,0-2,0.8-2,1.8l0,9.7C63.5,29.9,64.4,30.6,65.5,30.6 M82.7,23v-2.5
	c0-0.3,0.2-0.5,0.5-0.5h3.2l3.2,0c0.3,0,0.5,0.2,0.5,0.4V23h-3.7L82.7,23z M86.5,17.4h-5.3h0h0c-0.9,0-1.7,0.7-1.7,1.5v11.7l3.2,0
	V25h3.8h3.7v5.6l3,0V18.9c0-0.8-0.8-1.5-1.7-1.5L86.5,17.4z M108.7,17.4h-3v10.1c0,0.3-0.2,0.5-0.5,0.5l-6.8,0
	c-0.3,0-0.5-0.2-0.5-0.5v-1.9h-3v3.3c0,1,0.9,1.8,2,1.8l9.7,0c1.1,0,2-0.8,2-1.8V17.4z M47.9,33.4v-3.2c-0.1-1.8-1.6-3.4-3.3-3.5
	H14.7c-1.5-0.1-3.1,1.8-3.1,3.8v2.9h32.7H47.9z M30.1,0c4.2,0,7.7,3.4,7.7,7.6c0,4.2-3.5,7.6-7.7,7.6c-4.2,0-7.7-3.4-7.7-7.6
	C22.4,3.4,25.9,0,30.1,0 M28.1,55.7h27c2.4-0.3,3.9-1.4,4.6-3.2H22.9H4.7c-2.4,0.3-3.9,1.4-4.6,3.2H28.1z"/>
<path class="st1" d="M69.9,68.2c0,0.1,0,0.1,0,0.2c0,0.1,0,0.1,0,0.1c0,0,0,0.1,0,0.1c0,0-0.1,0.1-0.1,0.1c0,0-0.1,0.1-0.3,0.2
	c-0.2,0.1-0.3,0.2-0.6,0.3c-0.2,0.1-0.5,0.2-0.8,0.2c-0.3,0.1-0.6,0.1-0.9,0.1c-0.6,0-1.1-0.1-1.6-0.3c-0.5-0.2-0.9-0.5-1.2-0.9
	c-0.3-0.4-0.6-0.9-0.8-1.4c-0.2-0.6-0.3-1.2-0.3-1.9c0-0.8,0.1-1.4,0.3-2c0.2-0.6,0.5-1.1,0.8-1.5c0.4-0.4,0.8-0.7,1.3-0.9
	c0.5-0.2,1-0.3,1.6-0.3c0.3,0,0.5,0,0.8,0.1c0.2,0,0.5,0.1,0.7,0.2c0.2,0.1,0.4,0.2,0.6,0.3c0.2,0.1,0.3,0.2,0.3,0.2
	c0.1,0.1,0.1,0.1,0.1,0.1c0,0,0,0.1,0,0.1c0,0,0,0.1,0,0.2c0,0.1,0,0.1,0,0.2c0,0.1,0,0.2,0,0.2c0,0.1,0,0.1,0,0.2
	c0,0,0,0.1-0.1,0.1c0,0-0.1,0-0.1,0c-0.1,0-0.2,0-0.3-0.1c-0.1-0.1-0.3-0.2-0.5-0.3c-0.2-0.1-0.4-0.2-0.7-0.3
	c-0.3-0.1-0.6-0.1-1-0.1c-0.4,0-0.8,0.1-1.1,0.2c-0.3,0.2-0.6,0.4-0.8,0.7c-0.2,0.3-0.4,0.7-0.5,1.1c-0.1,0.5-0.2,1-0.2,1.5
	c0,0.6,0.1,1.1,0.2,1.5c0.1,0.4,0.3,0.8,0.5,1.1c0.2,0.3,0.5,0.5,0.9,0.7c0.3,0.2,0.7,0.2,1.1,0.2c0.4,0,0.7,0,0.9-0.1
	c0.3-0.1,0.5-0.2,0.7-0.3c0.2-0.1,0.3-0.2,0.5-0.3c0.1-0.1,0.2-0.1,0.3-0.1c0,0,0.1,0,0.1,0c0,0,0,0,0.1,0.1c0,0,0,0.1,0,0.2
	C69.9,68,69.9,68.1,69.9,68.2 M143.5,68.8c0,0.1,0,0.2,0,0.3c0,0.1,0,0.1-0.1,0.2c0,0-0.1,0.1-0.2,0.1c-0.1,0-0.2,0.1-0.3,0.1
	c-0.1,0-0.2,0-0.3,0.1c-0.1,0-0.2,0-0.3,0c-0.3,0-0.6,0-0.8-0.1c-0.2-0.1-0.4-0.2-0.6-0.4c-0.1-0.2-0.3-0.4-0.3-0.7
	c-0.1-0.3-0.1-0.6-0.1-1v-3.7h-0.9c-0.1,0-0.1,0-0.2-0.1c0-0.1-0.1-0.2-0.1-0.4c0-0.1,0-0.2,0-0.2c0-0.1,0-0.2,0-0.2
	c0,0,0-0.1,0.1-0.1c0,0,0.1,0,0.1,0h0.9v-1.5c0,0,0-0.1,0-0.1c0,0,0-0.1,0.1-0.1c0,0,0.1,0,0.2,0c0.1,0,0.2,0,0.3,0
	c0.1,0,0.2,0,0.3,0c0.1,0,0.1,0,0.2,0c0,0,0.1,0,0.1,0.1c0,0,0,0.1,0,0.1v1.5h1.6c0,0,0.1,0,0.1,0c0,0,0.1,0,0.1,0.1
	c0,0,0,0.1,0,0.2c0,0.1,0,0.1,0,0.2c0,0.2,0,0.3-0.1,0.4c0,0.1-0.1,0.1-0.2,0.1h-1.6v3.5c0,0.4,0.1,0.8,0.2,1
	c0.1,0.2,0.4,0.3,0.7,0.3c0.1,0,0.2,0,0.3,0c0.1,0,0.2,0,0.2-0.1c0.1,0,0.1,0,0.2-0.1c0,0,0.1,0,0.1,0.1c0,0,0,0.1,0,0.1
	C143.5,68.7,143.5,68.7,143.5,68.8 M145.6,69.3C145.6,69.3,145.6,69.3,145.6,69.3c0,0.1-0.1,0.1-0.1,0.2
	c0,0-0.1,0-0.2,0c-0.1,0-0.2,0-0.3,0c-0.1,0-0.2,0-0.3,0c-0.1,0-0.1,0-0.2,0c0,0-0.1,0-0.1-0.1c0,0,0-0.1,0-0.1V63c0,0,0-0.1,0-0.1
	c0,0,0-0.1,0.1-0.1c0,0,0.1,0,0.2,0c0.1,0,0.2,0,0.3,0c0.1,0,0.2,0,0.3,0c0.1,0,0.1,0,0.2,0c0,0,0.1,0,0.1,0.1c0,0,0,0.1,0,0.1V69.3
	z M145.7,60.8c0,0.3,0,0.5-0.2,0.6c-0.1,0.1-0.3,0.1-0.6,0.1c-0.3,0-0.5,0-0.6-0.1c-0.1-0.1-0.2-0.3-0.2-0.5c0-0.3,0-0.5,0.2-0.6
	c0.1-0.1,0.3-0.1,0.6-0.1c0.3,0,0.5,0,0.6,0.1C145.7,60.4,145.7,60.6,145.7,60.8 M152.4,63.2c0,0.2,0,0.3-0.1,0.4
	c0,0.1-0.1,0.1-0.2,0.1h-0.9c0.2,0.2,0.3,0.4,0.3,0.6c0.1,0.2,0.1,0.4,0.1,0.6c0,0.4-0.1,0.7-0.2,1c-0.1,0.3-0.3,0.5-0.5,0.7
	c-0.2,0.2-0.5,0.3-0.8,0.4c-0.3,0.1-0.6,0.2-1,0.2c-0.3,0-0.5,0-0.7-0.1c-0.2-0.1-0.4-0.2-0.5-0.3c-0.1,0.1-0.2,0.2-0.2,0.3
	c-0.1,0.1-0.1,0.2-0.1,0.4c0,0.2,0.1,0.3,0.2,0.4c0.2,0.1,0.4,0.2,0.6,0.2l1.6,0.1c0.3,0,0.6,0.1,0.9,0.1c0.3,0.1,0.5,0.2,0.7,0.3
	c0.2,0.1,0.3,0.3,0.5,0.5c0.1,0.2,0.2,0.4,0.2,0.7c0,0.3-0.1,0.6-0.2,0.8c-0.1,0.3-0.3,0.5-0.6,0.7c-0.3,0.2-0.6,0.4-1,0.5
	c-0.4,0.1-0.8,0.2-1.4,0.2c-0.5,0-0.9,0-1.3-0.1c-0.4-0.1-0.7-0.2-0.9-0.4c-0.2-0.1-0.4-0.3-0.5-0.5c-0.1-0.2-0.2-0.4-0.2-0.7
	c0-0.2,0-0.3,0.1-0.4c0-0.1,0.1-0.3,0.2-0.4c0.1-0.1,0.2-0.3,0.3-0.4c0.1-0.1,0.2-0.2,0.4-0.4c-0.2-0.1-0.4-0.3-0.5-0.4
	c-0.1-0.2-0.2-0.4-0.2-0.6c0-0.3,0.1-0.5,0.2-0.8c0.1-0.2,0.3-0.4,0.4-0.6c-0.1-0.2-0.3-0.4-0.3-0.6c-0.1-0.2-0.1-0.5-0.1-0.8
	c0-0.4,0.1-0.7,0.2-1c0.1-0.3,0.3-0.5,0.5-0.7c0.2-0.2,0.5-0.3,0.8-0.5c0.3-0.1,0.6-0.2,1-0.2c0.2,0,0.4,0,0.5,0
	c0.2,0,0.3,0.1,0.5,0.1h1.9c0.1,0,0.1,0,0.2,0.1C152.3,63,152.4,63.1,152.4,63.2 M150.6,64.9c0-0.4-0.1-0.8-0.4-1
	c-0.2-0.2-0.6-0.4-1-0.4c-0.2,0-0.4,0-0.6,0.1c-0.2,0.1-0.3,0.2-0.4,0.3c-0.1,0.1-0.2,0.3-0.2,0.5c-0.1,0.2-0.1,0.3-0.1,0.5
	c0,0.4,0.1,0.7,0.4,1c0.2,0.2,0.6,0.4,1,0.4c0.2,0,0.4,0,0.6-0.1c0.2-0.1,0.3-0.2,0.4-0.3c0.1-0.1,0.2-0.3,0.2-0.4
	C150.5,65.3,150.6,65.1,150.6,64.9 M151.1,69.9c0-0.3-0.1-0.5-0.3-0.6c-0.2-0.1-0.5-0.2-0.9-0.2l-1.6-0.1c-0.1,0.1-0.3,0.2-0.4,0.3
	c-0.1,0.1-0.2,0.2-0.2,0.3c-0.1,0.1-0.1,0.2-0.1,0.3c0,0.1,0,0.2,0,0.3c0,0.3,0.2,0.5,0.5,0.7c0.3,0.2,0.7,0.2,1.3,0.2
	c0.4,0,0.6,0,0.9-0.1c0.2-0.1,0.4-0.2,0.6-0.3c0.1-0.1,0.2-0.2,0.3-0.4C151.1,70.2,151.1,70.1,151.1,69.9 M159,66
	c0,0.5-0.1,1-0.2,1.4c-0.1,0.4-0.3,0.8-0.6,1.1c-0.3,0.3-0.6,0.6-1,0.7c-0.4,0.2-0.9,0.3-1.4,0.3c-0.5,0-1-0.1-1.4-0.2
	c-0.4-0.2-0.7-0.4-1-0.7c-0.3-0.3-0.4-0.7-0.6-1.1c-0.1-0.4-0.2-0.9-0.2-1.4c0-0.5,0.1-1,0.2-1.4c0.1-0.4,0.3-0.8,0.6-1.1
	c0.3-0.3,0.6-0.6,1-0.7c0.4-0.2,0.9-0.3,1.4-0.3c0.5,0,1,0.1,1.4,0.2c0.4,0.2,0.7,0.4,1,0.7c0.3,0.3,0.5,0.7,0.6,1.1
	C158.9,65,159,65.5,159,66 M157.8,66.1c0-0.3,0-0.7-0.1-1c-0.1-0.3-0.2-0.6-0.3-0.8c-0.1-0.2-0.3-0.4-0.6-0.5
	c-0.2-0.1-0.6-0.2-0.9-0.2c-0.3,0-0.6,0.1-0.9,0.2c-0.2,0.1-0.4,0.3-0.6,0.5c-0.2,0.2-0.3,0.5-0.4,0.8c-0.1,0.3-0.1,0.6-0.1,1
	c0,0.3,0,0.7,0.1,1c0.1,0.3,0.2,0.6,0.3,0.8c0.1,0.2,0.3,0.4,0.6,0.5c0.2,0.1,0.6,0.2,0.9,0.2c0.3,0,0.6-0.1,0.9-0.2
	c0.2-0.1,0.5-0.3,0.6-0.5c0.2-0.2,0.3-0.5,0.4-0.8C157.7,66.8,157.8,66.5,157.8,66.1 M74.5,63.4c0,0.1,0,0.2,0,0.3
	c0,0.1,0,0.1,0,0.2c0,0,0,0.1-0.1,0.1c0,0,0,0-0.1,0c0,0-0.1,0-0.1,0c-0.1,0-0.1,0-0.2-0.1c-0.1,0-0.1,0-0.2-0.1c-0.1,0-0.2,0-0.3,0
	c-0.1,0-0.2,0.1-0.4,0.2c-0.1,0.1-0.3,0.3-0.4,0.4c-0.1,0.2-0.3,0.4-0.4,0.7v4.2c0,0,0,0.1,0,0.1
	c0,0-0.1,0-0.1,0.1c0,0-0.1,0-0.2,0c-0.1,0-0.2,0-0.3,0c-0.1,0-0.2,0-0.3,0c-0.1,0-0.1,0-0.2,0c0,0-0.1,0-0.1-0.1c0,0-0.1-0.1,0-0.1
	v-4.2c0,0,0-0.1,0-0.1c0,0,0,0.1,0.1-0.1c0,0,0.1,0,0.2,0c0.1,0,0.2,0,0.3,0c0.1,0,0.2,0,0.3,0c0.1,0,0.1,0,0.2,0c0,0,0.1,0,0.1,0.1
	c0,0,0,0.1,0,0.1v0.9c0.2-0.3,0.3-0.5,0.5-0.6c0.2-0.2,0.3-0.3,0.4-0.4c0.1-0.1,0.3-0.2,0.4-0.2c0.1,0,0.3-0.1,0.4-0.1
	c0.1,0,0.1,0,0.2,0c0.1,0,0.2,0,0.2,0c0.1,0,0.2,0,0.2,0.1c0.1,0,0.1,0,0.1,0.1c0,0,0,0,0.1,0.1c0,0,0,0,0,0.1c0,0,0,0.1,0,0.1
	C74.5,63.2,74.5,63.3,74.5,63.4 M80.4,65.8c0,0.2,0,0.3-0.1,0.4c-0.1,0.1-0.2,0.1-0.3,0.1h-4.1c0,0.4,0,0.7,0.1,0.9
	c0.1,0.3,0.2,0.5,0.4,0.7c0.2,0.2,0.4,0.4,0.6,0.5c0.3,0.1,0.6,0.2,1,0.2c0.3,0,0.6,0,0.8-0.1c0.2,0,0.4-0.1,0.6-0.2
	c0.2-0.1,0.3-0.1,0.4-0.2c0.1,0,0.2-0.1,0.2-0.1c0,0,0.1,0,0.1,0c0,0,0,0,0.1,0.1c0,0,0,0.1,0,0.1c0,0.1,0,0.1,0,0.2
	c0,0.1,0,0.1,0,0.2c0,0,0,0.1,0,0.1c0,0,0,0.1,0,0.1c0,0,0,0.1-0.1,0.1c0,0-0.1,0.1-0.2,0.1c-0.1,0.1-0.3,0.1-0.5,0.2
	c-0.2,0.1-0.4,0.1-0.7,0.2c-0.3,0-0.5,0.1-0.8,0.1c-0.5,0-1-0.1-1.4-0.2c-0.5-0.1-0.7-0.4-1-0.6c-0.3-0.3-0.5-0.6-0.6-1.1
	c-0.1-0.4-0.2-0.9-0.2-1.5c0-0.5,0.1-1,0.2-1.5c0.1-0.4,0.3-0.8,0.6-1.1c0.3-0.3,0.6-0.5,1-0.7c0.4-0.2,0.8-0.2,1.3-0.2
	c0.5,0,0.9,0.1,1.3,0.2c0.3,0.2,0.6,0.4,0.9,0.6c0.2,0.3,0.4,0.6,0.5,0.9c0.1,0.4,0.2,0.7,0.2,1.2V65.8z M79.2,65.5
	c0-0.6-0.1-1.1-0.4-1.4c-0.3-0.3-0.7-0.5-1.3-0.5c-0.3,0-0.5,0.1-0.8,0.2c-0.2,0.1-0.4,0.2-0.5,0.4c-0.1,0.2-0.3,0.4-0.3,0.6
	c-0.1,0.2-0.1,0.5-0.1,0.7H79.2z M86,68.3c0,0.1,0,0.1,0,0.2c0,0.1,0,0.1,0,0.1c0,0,0,0.1,0,0.1c0,0-0.1,0.1-0.1,0.1
	c-0.1,0.1-0.2,0.1-0.3,0.2c-0.1,0.1-0.3,0.2-0.5,0.2c-0.2,0.1-0.4,0.1-0.6,0.2c-0.2,0-0.4,0.1-0.6,0.1c-0.5,0-0.9-0.1-1.2-0.2
	c-0.4-0.2-0.6-0.4-0.9-0.7c-0.2-0.3-0.4-0.6-0.5-1.1c-0.1-0.4-0.2-0.9-0.2-1.4c0-0.6,0.1-1.2,0.2-1.6c0.2-0.4,0.4-0.8,0.6-1.1
	c0.3-0.3,0.6-0.5,0.9-0.6c0.4-0.1,0.7-0.2,1.2-0.2c0.2,0,0.4,0,0.6,0.1c0.2,0,0.4,0.1,0.5,0.1c0.2,0.1,0.3,0.1,0.4,0.2
	c0.1,0.1,0.2,0.1,0.3,0.2c0.1,0.1,0.1,0.1,0.1,0.1c0,0,0,0.1,0.1,0.1c0,0,0,0.1,0,0.2c0,0.1,0,0.1,0,0.2c0,0.2,0,0.3-0.1,0.4
	c0,0.1-0.1,0.1-0.2,0.1c-0.1,0-0.2,0-0.2-0.1c-0.1-0.1-0.2-0.2-0.3-0.3c-0.1-0.1-0.3-0.2-0.5-0.3c-0.2-0.1-0.4-0.1-0.7-0.1
	c-0.6,0-1,0.2-1.3,0.6c-0.3,0.4-0.4,1-0.4,1.9c0,0.4,0,0.8,0.1,1.1c0.1,0.3,0.2,0.6,0.3,0.8c0.2,0.2,0.3,0.4,0.6,0.5
	c0.2,0.1,0.5,0.2,0.7,0.2c0.3,0,0.5,0,0.7-0.1c0.2-0.1,0.4-0.2,0.5-0.3c0.1-0.1,0.3-0.2,0.4-0.3c0.1-0.1,0.2-0.1,0.2-0.1
	c0,0,0.1,0,0.1,0c0,0,0,0.1,0.1,0.1c0,0,0,0.1,0,0.2C86,68.1,86,68.2,86,68.3 M92.3,65.8c0,0.2,0,0.3-0.1,0.4
	c-0.1,0.1-0.2,0.1-0.3,0.1h-4.1c0,0.4,0,0.7,0.1,0.9c0.1,0.3,0.2,0.5,0.4,0.7c0.2,0.2,0.4,0.4,0.6,0.5c0.3,0.1,0.6,0.2,1,0.2
	c0.3,0,0.6,0,0.8-0.1c0.2,0,0.4-0.1,0.6-0.2c0.2-0.1,0.3-0.1,0.4-0.2c0.1,0,0.2-0.1,0.2-0.1c0,0,0.1,0,0.1,0c0,0,0,0,0.1,0.1
	c0,0,0,0.1,0,0.1c0,0.1,0,0.1,0,0.2c0,0.1,0,0.1,0,0.2c0,0,0,0.1,0,0.1c0,0,0.1,0.1,0,0.1c0,0,0,0.1-0.1,0.1c0,0-0.1,0.1-0.2,0.1
	c-0.1,0.1-0.3,0.1-0.5,0.2c-0.2,0.1-0.4,0.1-0.7,0.2c-0.3,0-0.5,0.1-0.8,0.1c-0.5,0-1-0.1-1.4-0.2c-0.4-0.1-0.7-0.4-1-0.6
	c-0.3-0.3-0.5-0.6-0.6-1.1c-0.1-0.4-0.2-0.9-0.2-1.5c0-0.5,0.1-1,0.2-1.5c0.1-0.4,0.3-0.8,0.6-1.1c0.3-0.3,0.6-0.5,1-0.7
	c0.4-0.2,0.8-0.2,1.3-0.2c0.5,0,0.9,0.1,1.3,0.2c0.3,0.2,0.6,0.4,0.9,0.6c0.2,0.3,0.4,0.6,0.5,0.9c0.1,0.4,0.2,0.7,0.2,1.2V65.8z
	 M91.2,65.5c0-0.6-0.1-1.1-0.4-1.4c-0.3-0.3-0.7-0.5-1.3-0.5c-0.3,0-0.5,0.1-0.8,0.2c-0.2,0.1-0.4,0.2-0.5,0.4
	c-0.1,0.2-0.3,0.4-0.3,0.6c-0.1,0.2-0.1,0.5-0.1,0.7H91.2z M102.8,69.3C102.8,69.3,102.8,69.3,102.8,69.3c0,0.1-0.1,0.1-0.1,0.2
	c0,0-0.1,0-0.2,0c-0.1,0-0.2,0-0.3,0c-0.1,0-0.2,0-0.3,0c-0.1,0-0.1,0-0.2,0c0,0-0.1,0-0.1-0.1c0,0,0-0.1,0-0.1v-3.8
	c0-0.3,0-0.5-0.1-0.7c0-0.2-0.1-0.4-0.2-0.6c-0.1-0.2-0.2-0.3-0.4-0.4c-0.2-0.1-0.3-0.1-0.6-0.1c-0.3,0-0.5,0.1-0.8,0.3
	c-0.3,0.2-0.6,0.5-0.9,0.9v4.4c0,0,0,0.1,0,0.1c0,0-0.1,0-0.1,0.1c0,0-0.1,0-0.2,0c-0.1,0-0.2,0-0.3,0c-0.1,0-0.2,0-0.3,0
	c-0.1,0-0.1,0-0.2,0c0,0-0.1,0-0.1-0.1c0,0,0-0.1,0-0.1v-3.8c0-0.3,0-0.5-0.1-0.7c-0.1-0.2-0.1-0.4-0.2-0.6
	c-0.1-0.2-0.2-0.3-0.4-0.4c-0.2-0.1-0.3-0.1-0.6-0.1c-0.3,0-0.5,0.1-0.8,0.3c-0.3,0.2-0.6,0.5-0.9,0.9v4.4c0,0,0,0.1,0,0.1
	c0,0-0.1,0-0.1,0.1c0,0-0.1,0-0.2,0c-0.1,0-0.2,0-0.3,0c-0.1,0-0.2,0-0.3,0c-0.1,0-0.1,0-0.2,0c0,0-0.1,0-0.1-0.1c0,0,0-0.1,0-0.1
	V63c0,0,0-0.1,0-0.1c0,0,0,0,0.1-0.1c0,0,0.1,0,0.2,0c0.1,0,0.2,0,0.3,0c0.1,0,0.2,0,0.3,0c0.1,0,0.1,0,0.2,0c0,0,0.1,0,0.1,0.1
	c0,0,0,0.1,0,0.1v0.8c0.4-0.4,0.7-0.7,1-0.9c0.3-0.2,0.7-0.3,1-0.3c0.3,0,0.5,0,0.7,0.1c0.2,0.1,0.4,0.1,0.6,0.3
	c0.2,0.1,0.3,0.2,0.4,0.4c0.1,0.2,0.2,0.3,0.3,0.5c0.2-0.2,0.4-0.4,0.6-0.6c0.2-0.2,0.4-0.3,0.5-0.4c0.2-0.1,0.3-0.2,0.5-0.2
	c0.2,0,0.3-0.1,0.5-0.1c0.4,0,0.7,0.1,1,0.2c0.3,0.1,0.5,0.3,0.7,0.6c0.2,0.2,0.3,0.5,0.4,0.8c0.1,0.3,0.1,0.7,0.1,1V69.3z
	 M110.2,66c0,0.5-0.1,1-0.2,1.4c-0.1,0.4-0.3,0.8-0.6,1.1c-0.3,0.3-0.6,0.6-1,0.7c-0.4,0.2-0.9,0.3-1.4,0.3c-0.5,0-1-0.1-1.4-0.2
	c-0.4-0.2-0.7-0.4-1-0.7c-0.3-0.3-0.4-0.7-0.6-1.1c-0.1-0.4-0.2-0.9-0.2-1.4c0-0.5,0.1-1,0.2-1.4c0.1-0.4,0.3-0.8,0.6-1.1
	c0.3-0.3,0.6-0.6,1-0.7c0.4-0.2,0.9-0.3,1.4-0.3c0.5,0,1,0.1,1.4,0.2c0.4,0.2,0.7,0.4,1,0.7c0.3,0.3,0.5,0.7,0.6,1.1
	C110.1,65,110.2,65.5,110.2,66 M109,66.1c0-0.3,0-0.7-0.1-1c-0.1-0.3-0.2-0.6-0.3-0.8c-0.1-0.2-0.3-0.4-0.6-0.5
	c-0.2-0.1-0.6-0.2-0.9-0.2c-0.3,0-0.6,0.1-0.9,0.2c-0.2,0.1-0.4,0.3-0.6,0.5c-0.2,0.2-0.3,0.5-0.4,0.8c-0.1,0.3-0.1,0.6-0.1,1
	c0,0.3,0,0.7,0.1,1c0.1,0.3,0.2,0.6,0.3,0.8c0.1,0.2,0.3,0.4,0.6,0.5c0.2,0.1,0.6,0.2,0.9,0.2c0.3,0,0.6-0.1,0.9-0.2
	c0.2-0.1,0.5-0.3,0.6-0.5c0.2-0.2,0.3-0.5,0.4-0.8C108.9,66.8,109,66.5,109,66.1 M115.2,67.6c0,0.3-0.1,0.6-0.2,0.9
	c-0.1,0.3-0.3,0.5-0.5,0.6c-0.2,0.2-0.5,0.3-0.8,0.4c-0.3,0.1-0.6,0.1-1,0.1c-0.2,0-0.4,0-0.6-0.1c-0.2,0-0.4-0.1-0.5-0.1
	c-0.2-0.1-0.3-0.1-0.4-0.2c-0.1-0.1-0.2-0.1-0.2-0.2c-0.1,0-0.1-0.1-0.1-0.2c0-0.1,0-0.2,0-0.3c0-0.1,0-0.2,0-0.2c0-0.1,0-0.1,0-0.1
	c0,0,0-0.1,0.1-0.1c0,0,0.1,0,0.1,0c0.1,0,0.1,0,0.2,0.1c0.1,0.1,0.2,0.1,0.4,0.2c0.1,0.1,0.3,0.1,0.5,0.2c0.2,0.1,0.4,0.1,0.7,0.1
	c0.2,0,0.4,0,0.5-0.1c0.2,0,0.3-0.1,0.4-0.2c0.1-0.1,0.2-0.2,0.3-0.3c0.1-0.1,0.1-0.3,0.1-0.5c0-0.2,0-0.3-0.1-0.4
	c-0.1-0.1-0.2-0.2-0.4-0.3c-0.2-0.1-0.3-0.2-0.5-0.2c-0.2-0.1-0.4-0.1-0.6-0.2c-0.2-0.1-0.4-0.2-0.6-0.3c-0.2-0.1-0.4-0.2-0.5-0.4
	c-0.2-0.1-0.3-0.3-0.4-0.5c-0.1-0.2-0.1-0.4-0.1-0.7c0-0.2,0-0.5,0.1-0.7c0.1-0.2,0.2-0.4,0.4-0.6c0.2-0.2,0.4-0.3,0.7-0.4
	c0.3-0.1,0.6-0.2,1-0.2c0.2,0,0.3,0,0.5,0c0.2,0,0.3,0.1,0.5,0.1c0.1,0,0.3,0.1,0.3,0.1c0.1,0,0.2,0.1,0.2,0.1c0,0,0.1,0.1,0.1,0.1
	c0,0,0,0.1,0,0.1c0,0,0,0.1,0,0.1c0,0,0,0.1,0,0.2c0,0.1,0,0.1,0,0.2c0,0.1,0,0.1,0,0.1c0,0,0,0.1-0.1,0.1c0,0,0,0-0.1,0
	c0,0-0.1,0-0.2-0.1c-0.1,0-0.2-0.1-0.3-0.2c-0.1-0.1-0.3-0.1-0.4-0.2c-0.2,0-0.4-0.1-0.6-0.1c-0.2,0-0.4,0-0.5,0.1
	c-0.1,0-0.3,0.1-0.4,0.2c-0.1,0.1-0.2,0.2-0.2,0.3c0,0.1-0.1,0.2-0.1,0.4c0,0.2,0,0.3,0.1,0.5c0.1,0.1,0.2,0.2,0.4,0.3
	c0.1,0.1,0.3,0.2,0.5,0.3c0.2,0.1,0.4,0.2,0.6,0.2c0.2,0.1,0.4,0.2,0.6,0.3c0.2,0.1,0.4,0.2,0.5,0.4c0.1,0.1,0.3,0.3,0.4,0.5
	C115.2,67.1,115.2,67.3,115.2,67.6 M125.7,68.2c0,0.1,0,0.1,0,0.2c0,0.1,0,0.1,0,0.1c0,0,0,0.1,0,0.1c0,0-0.1,0.1-0.1,0.1
	c0,0-0.1,0.1-0.3,0.2c-0.2,0.1-0.3,0.2-0.6,0.3c-0.2,0.1-0.5,0.2-0.8,0.2c-0.3,0.1-0.6,0.1-0.9,0.1c-0.6,0-1.1-0.1-1.6-0.3
	c-0.5-0.2-0.9-0.5-1.2-0.9c-0.3-0.4-0.6-0.9-0.8-1.4c-0.2-0.6-0.3-1.2-0.3-1.9c0-0.8,0.1-1.4,0.3-2c0.2-0.6,0.5-1.1,0.8-1.5
	c0.4-0.4,0.8-0.7,1.3-0.9c0.5-0.2,1-0.3,1.6-0.3c0.3,0,0.5,0,0.8,0.1c0.2,0,0.5,0.1,0.7,0.2c0.2,0.1,0.4,0.2,0.6,0.3
	c0.2,0.1,0.3,0.2,0.3,0.2c0.1,0.1,0.1,0.1,0.1,0.1c0,0,0,0.1,0,0.1c0,0,0,0.1,0,0.2c0,0.1,0,0.1,0,0.2c0,0.1,0,0.2,0,0.2
	c0,0.1,0,0.1,0,0.2c0,0,0,0.1-0.1,0.1c0,0-0.1,0-0.1,0c-0.1,0-0.2,0-0.3-0.1c-0.1-0.1-0.3-0.2-0.5-0.3c-0.2-0.1-0.4-0.2-0.7-0.3
	c-0.3-0.1-0.6-0.1-1-0.1c-0.4,0-0.8,0.1-1.1,0.2c-0.3,0.2-0.6,0.4-0.8,0.7c-0.2,0.3-0.4,0.7-0.5,1.1c-0.1,0.5-0.2,1-0.2,1.5
	c0,0.6,0.1,1.1,0.2,1.5c0.1,0.4,0.3,0.8,0.5,1.1c0.2,0.3,0.5,0.5,0.9,0.7c0.3,0.2,0.7,0.2,1.1,0.2c0.4,0,0.7,0,0.9-0.1
	c0.3-0.1,0.5-0.2,0.7-0.3c0.2-0.1,0.3-0.2,0.5-0.3c0.1-0.1,0.2-0.1,0.3-0.1c0,0,0.1,0,0.1,0c0,0,0,0,0.1,0.1c0,0,0,0.1,0,0.2
	C125.7,68,125.7,68.1,125.7,68.2 M132.4,66c0,0.5-0.1,1-0.2,1.4c-0.1,0.4-0.3,0.8-0.6,1.1c-0.3,0.3-0.6,0.6-1,0.7
	c-0.4,0.2-0.9,0.3-1.4,0.3c-0.5,0-1-0.1-1.4-0.2c-0.4-0.2-0.7-0.4-1-0.7c-0.3-0.3-0.4-0.7-0.6-1.1c-0.1-0.4-0.2-0.9-0.2-1.4
	c0-0.5,0.1-1,0.2-1.4c0.1-0.4,0.3-0.8,0.6-1.1c0.3-0.3,0.6-0.6,1-0.7c0.4-0.2,0.9-0.3,1.4-0.3c0.5,0,1,0.1,1.4,0.2
	c0.4,0.2,0.7,0.4,1,0.7c0.3,0.3,0.5,0.7,0.6,1.1C132.3,65,132.4,65.5,132.4,66 M131.2,66.1c0-0.3,0-0.7-0.1-1
	c-0.1-0.3-0.2-0.6-0.3-0.8c-0.1-0.2-0.3-0.4-0.6-0.5c-0.2-0.1-0.6-0.2-0.9-0.2c-0.3,0-0.6,0.1-0.9,0.2c-0.2,0.1-0.4,0.3-0.6,0.5
	c-0.2,0.2-0.3,0.5-0.4,0.8c-0.1,0.3-0.1,0.6-0.1,1c0,0.3,0,0.7,0.1,1c0.1,0.3,0.2,0.6,0.3,0.8c0.1,0.2,0.3,0.4,0.6,0.5
	c0.2,0.1,0.6,0.2,0.9,0.2c0.3,0,0.6-0.1,0.9-0.2c0.2-0.1,0.5-0.3,0.6-0.5c0.2-0.2,0.3-0.5,0.4-0.8C131.1,66.8,131.2,66.5,131.2,66.1
	 M138.9,69.3C138.9,69.3,138.9,69.3,138.9,69.3c0,0.1-0.1,0.1-0.1,0.2c0,0-0.1,0-0.2,0c-0.1,0-0.2,0-0.3,0c-0.1,0-0.2,0-0.3,0
	c-0.1,0-0.1,0-0.2,0c0,0-0.1,0-0.1-0.1c0,0,0-0.1,0-0.1v-3.7c0-0.4,0-0.7-0.1-0.9c-0.1-0.2-0.1-0.4-0.2-0.6
	c-0.1-0.2-0.2-0.3-0.4-0.4c-0.2-0.1-0.4-0.1-0.6-0.1c-0.3,0-0.6,0.1-0.9,0.3c-0.3,0.2-0.6,0.5-0.9,0.9v4.4c0,0,0,0.1,0,0.1
	c0,0,0,0-0.1,0.1c0,0-0.1,0-0.2,0c-0.1,0-0.2,0-0.3,0c-0.1,0-0.2,0-0.3,0c-0.1,0-0.1,0-0.2,0c0,0-0.1,0-0.1-0.1c0,0,0-0.1,0-0.1V63
	c0,0,0-0.1,0-0.1c0,0,0,0,0.1-0.1c0,0,0.1,0,0.2,0c0.1,0,0.2,0,0.3,0c0.1,0,0.2,0,0.3,0c0.1,0,0.1,0,0.2,0c0,0,0.1,0,0.1,0.1
	c0,0,0,0.1,0,0.1v0.8c0.4-0.4,0.7-0.7,1.1-0.9c0.4-0.2,0.7-0.3,1.1-0.3c0.4,0,0.8,0.1,1.1,0.2c0.3,0.1,0.5,0.3,0.7,0.6
	c0.2,0.2,0.3,0.5,0.4,0.8c0.1,0.3,0.1,0.7,0.1,1.2V69.3z"/>
<path class="st0" d="M158.2,74.2c-14-0.6-28.7,1.1-42.1,5.3c0,0,0-0.1,0-0.1c13.2-5,28.2-7,42.3-6.6c0.4,0.1,0.6,0.4,0.6,0.8
	C158.9,74,158.6,74.2,158.2,74.2"/>
</svg>
